{
    "asset": {
        "version": "2.0",
        "generator": "Open Asset Import Library (assimp v5.4.0)"
    },
    "extensionsUsed": [
        "KHR_materials_volume",
        "FB_ngon_encoding"
    ],
    "accessors": [
        {
            "bufferView": 0,
            "byteOffset": 0,
            "componentType": 5126,
            "count": 4,
            "type": "VEC3",
            "max": [
                -3.977569103240967,
                0.2953830063343048,
                5.587316989898682
            ],
            "min": [
                -3.9866809844970703,
                -0.30441901087760925,
                5.46422815322876
            ]
        },
        {
            "bufferView": 1,
            "byteOffset": 0,
            "componentType": 5126,
            "count": 4,
            "type": "VEC3",
            "max": [
                -0.9972732663154602,
                -0.0,
                -0.07379801571369171
            ],
            "min": [
                -0.9972732663154602,
                -0.0,
                -0.07379801571369171
            ]
        },
        {
            "bufferView": 2,
            "byteOffset": 0,
            "componentType": 5126,
            "count": 4,
            "type": "VEC2",
            "max": [
                0.1568949967622757,
                0.7756860256195068
            ],
            "min": [
                0.09498900175094604,
                0.7623299956321716
            ]
        },
        {
            "bufferView": 3,
            "byteOffset": 0,
            "componentType": 5125,
            "count": 6,
            "type": "SCALAR",
            "max": [
                3
            ],
            "min": [
                0
            ]
        },
        {
            "bufferView": 4,
            "byteOffset": 0,
            "componentType": 5126,
            "count": 9422,
            "type": "VEC3",
            "max": [
                4.625527858734131,
                1.565714955329895,
                7.524938106536865
            ],
            "min": [
                -4.454816818237305,
                -1.5657169818878174,
                -0.793857991695404
            ]
        },
        {
            "bufferView": 5,
            "byteOffset": 0,
            "componentType": 5126,
            "count": 9422,
            "type": "VEC3",
            "max": [
                1.0,
                1.0,
                1.0
            ],
            "min": [
                -1.0,
                -1.0,
                -1.0
            ]
        },
        {
            "bufferView": 6,
            "byteOffset": 0,
            "componentType": 5126,
            "count": 9422,
            "type": "VEC2",
            "max": [
                1.0,
                1.0
            ],
            "min": [
                0.0,
                0.00803297758102417
            ]
        },
        {
            "bufferView": 7,
            "byteOffset": 0,
            "componentType": 5125,
            "count": 17814,
            "type": "SCALAR",
            "max": [
                9421
            ],
            "min": [
                0
            ]
        }
    ],
    "buffers": [
        {
            "byteLength": 372912,
            "uri": "at-at_walker_star_wars_low_poly (1)_0.bin"
        }
    ],
    "bufferViews": [
        {
            "buffer": 0,
            "byteOffset": 0,
            "byteLength": 48,
            "target": 34962
        },
        {
            "buffer": 0,
            "byteOffset": 48,
            "byteLength": 48,
            "target": 34962
        },
        {
            "buffer": 0,
            "byteOffset": 96,
            "byteLength": 32,
            "target": 34962
        },
        {
            "buffer": 0,
            "byteOffset": 128,
            "byteLength": 24,
            "target": 34963
        },
        {
            "buffer": 0,
            "byteOffset": 152,
            "byteLength": 113064,
            "target": 34962
        },
        {
            "buffer": 0,
            "byteOffset": 113216,
            "byteLength": 113064,
            "target": 34962
        },
        {
            "buffer": 0,
            "byteOffset": 226280,
            "byteLength": 75376,
            "target": 34962
        },
        {
            "buffer": 0,
            "byteOffset": 301656,
            "byteLength": 71256,
            "target": 34963
        }
    ],
    "images": [
        {
            "uri": "textures/image_0.png"
        }
    ],
    "materials": [
        {
            "name": "AT-AT.001_EMIISION",
            "pbrMetallicRoughness": {
                "metallicFactor": 0.0,
                "roughnessFactor": 0.6000000238418579
            },
            "doubleSided": true
        },
        {
            "name": "AT-AT",
            "pbrMetallicRoughness": {
                "baseColorTexture": {
                    "index": 0
                },
                "metallicFactor": 0.0,
                "roughnessFactor": 0.6000000238418579
            },
            "doubleSided": true
        }
    ],
    "meshes": [
        {
            "name": "meshes[0]",
            "primitives": [
                {
                    "mode": 4,
                    "material": 0,
                    "indices": 3,
                    "attributes": {
                        "POSITION": 0,
                        "NORMAL": 1,
                        "TEXCOORD_0": 2
                    }
                }
            ]
        },
        {
            "name": "meshes[1]",
            "primitives": [
                {
                    "mode": 4,
                    "material": 1,
                    "indices": 7,
                    "attributes": {
                        "POSITION": 4,
                        "NORMAL": 5,
                        "TEXCOORD_0": 6
                    }
                }
            ]
        }
    ],
    "nodes": [
        {
            "name": "at-at_walker_star_wars_low_poly (1)",
            "children": [
                1
            ]
        },
        {
            "name": "Sketchfab_model",
            "matrix": [
                1.0,
                0.0,
                0.0,
                0.0,
                0.0,
                2.220446049250313e-16,
                -1.0,
                0.0,
                0.0,
                1.0,
                2.220446049250313e-16,
                0.0,
                0.0,
                0.0,
                0.0,
                1.0
            ],
            "children": [
                2
            ],
            "extras": {
                "name": "Sketchfab_model"
            }
        },
        {
            "name": "f58424daab424c2bb7d86b9b3ed8c7e3objcleanermaterialmergergles",
            "children": [
                3,
                4
            ],
            "extras": {
                "name": "f58424daab424c2bb7d86b9b3ed8c7e3.obj.cleaner.materialmerger.gles"
            }
        },
        {
            "name": "Object_2",
            "mesh": 0,
            "extras": {
                "name": "Object_2"
            }
        },
        {
            "name": "Object_3",
            "mesh": 1,
            "extras": {
                "name": "Object_3"
            }
        }
    ],
    "samplers": [
        {
            "magFilter": 9729,
            "minFilter": 9987
        }
    ],
    "scenes": [
        {
            "nodes": [
                0
            ]
        }
    ],
    "textures": [
        {
            "source": 0,
            "sampler": 0
        }
    ],
    "scene": 0
}